<svg width="24" height="24" viewBox="0 0 24 24" fill="none" xmlns="http://www.w3.org/2000/svg">
  <rect width="24" height="24" fill="white" fill-opacity="0"/>
  <path d="M3 15C3 13.8954 3.89543 13 5 13H6.5L9 10C9.55228 9.44772 10.4477 9 11 9H17C17.5523 9 18.4477 9.44772 19 10L21 13H21.5C22.0523 13 22.5 13.4477 22.5 14V16C22.5 16.5523 22.0523 17 21.5 17H21C21 18.1046 20.1046 19 19 19C17.8954 19 17 18.1046 17 17H9C9 18.1046 8.10457 19 7 19C5.89543 19 5 18.1046 5 17H4.5C3.94772 17 3.5 16.5523 3.5 16V15H3ZM6.5 17C7.05228 17 7.5 16.5523 7.5 16C7.5 15.4477 7.05228 15 6.5 15C5.94772 15 5.5 15.4477 5.5 16C5.5 16.5523 5.94772 17 6.5 17ZM18.5 17C19.0523 17 19.5 16.5523 19.5 16C19.5 15.4477 19.0523 15 18.5 15C17.9477 15 17.5 15.4477 17.5 16C17.5 16.5523 17.9477 17 18.5 17ZM11 11L8.5 13H17.5L15 11H11Z" fill="#2563ff"/>
</svg>